<svg xmlns="http://www.w3.org/2000/svg" xmlns:xlink="http://www.w3.org/1999/xlink" version="1.1" x="0px" y="0px" viewBox="0 0 100 125" enable-background="new 0 0 100 100" xml:space="preserve"><path fill="#000000" d="M14.415,15.802l11.601,11.644l-5.858,5.879l8.638,8.671l30.077,30.188l3.006-3.017l11.979,10.149  l2.259-2.266L94,95l-0.286-3.634L77.783,75.378l2.259-2.268l-10.11-12.024l3.007-3.018L42.86,27.88l-8.64-8.671l-5.858,5.88  L16.762,13.446l6.068-6.091L20.483,5L6,19.536l2.347,2.355L14.415,15.802z M75.54,72.92l-1.872,1.877l-9.434-7.992l3.341-3.354  L75.54,72.92z M68.242,58.068l-0.461,0.463l-8.448,8.481l-0.46,0.46l-1.498-1.502l3.619-3.633l-2.347-2.355l-3.619,3.633  l-1.895-1.902l3.619-3.633l-2.348-2.355l-3.618,3.633l-1.895-1.902l6.443-6.465l-2.348-2.356L46.545,55.1l-1.895-1.901l3.619-3.633  l-2.347-2.355l-3.619,3.633l-1.896-1.903l3.619-3.633L41.68,42.95l-3.619,3.633l-1.894-1.9l6.442-6.466l-2.347-2.355l-6.442,6.465  l-2.677-2.688l9.37-9.404L68.242,58.068z M38.166,27.88l-9.37,9.404l-3.944-3.959l9.368-9.404L38.166,27.88z"/></svg>